<svg width="30" height="30" viewBox="0 0 30 30" fill="none" xmlns="http://www.w3.org/2000/svg">
<g clip-path="url(#clip0_506:5468)">
<path fill-rule="evenodd" clip-rule="evenodd" d="M14.9928 29.9856C6.7125 29.9856 0 23.2731 0 14.9928C0 6.7125 6.7125 0 14.9928 0C23.2731 0 29.9856 6.7125 29.9856 14.9928C29.9856 23.2731 23.2731 29.9856 14.9928 29.9856ZM24.1764 10.7749C23.5339 11.0598 22.8428 11.2525 22.1179 11.3385C22.858 10.8951 23.4259 10.1936 23.694 9.35626C23.0015 9.76704 22.2342 10.065 21.4183 10.2257C20.7645 9.52944 19.8331 9.09434 18.8018 9.09434C16.823 9.09434 15.2181 10.6992 15.2181 12.678C15.2181 12.9589 15.2499 13.2323 15.3114 13.4948C12.333 13.3454 9.6922 11.9188 7.92454 9.74993C7.61612 10.2791 7.4392 10.8951 7.4392 11.5518C7.4392 12.7948 8.07234 13.8922 9.03341 14.5347C8.44623 14.5163 7.89327 14.3551 7.41033 14.086C7.41007 14.1012 7.41007 14.1164 7.41007 14.1314C7.41007 15.8678 8.64588 17.3161 10.285 17.6451C9.98459 17.7274 9.66735 17.771 9.34102 17.771C9.10958 17.771 8.88534 17.7488 8.66673 17.7071C9.12267 19.1305 10.4459 20.1667 12.0144 20.1958C10.7877 21.1571 9.24267 21.7299 7.56321 21.7299C7.27456 21.7299 6.9886 21.7131 6.70877 21.6796C8.2939 22.6968 10.1781 23.2899 12.2018 23.2899C18.7935 23.2899 22.3983 17.8292 22.3983 13.0931C22.3983 12.9378 22.3948 12.7831 22.3879 12.6297C23.0886 12.1245 23.6961 11.4935 24.1764 10.7749Z" fill="white"/>
</g>
<defs>
<clipPath id="clip0_506:5468">
<rect width="30" height="30" fill="white"/>
</clipPath>
</defs>
</svg>
